<svg xmlns="http://www.w3.org/2000/svg" width="451" height="386" fill="none" viewBox="0 0 451 386"><g filter="url(#filter0_i_38_902)"><circle cx="223.598" cy="150" r="150" fill="url(#paint0_linear_38_902)"/></g><path stroke="url(#paint1_linear_38_902)" stroke-linecap="round" stroke-width="27.713" d="M17 248.146C87 231.006 157 231.006 227 248.146C297 265.285 367 265.285 437 248.146"/><path stroke="url(#paint2_linear_38_902)" stroke-linecap="round" stroke-width="27.713" d="M14 304.854C84 287.715 154 287.715 224 304.854C294 321.993 364 321.993 434 304.854"/><path stroke="url(#paint3_linear_38_902)" stroke-linecap="round" stroke-width="27.713" d="M14 358.854C84 341.715 154 341.715 224 358.854C294 375.993 364 375.993 434 358.854"/><defs><filter id="filter0_i_38_902" width="300" height="321.124" x="73.597" y="0" color-interpolation-filters="sRGB" filterUnits="userSpaceOnUse"><feFlood flood-opacity="0" result="BackgroundImageFix"/><feBlend in="SourceGraphic" in2="BackgroundImageFix" mode="normal" result="shape"/><feColorMatrix in="SourceAlpha" result="hardAlpha" type="matrix" values="0 0 0 0 0 0 0 0 0 0 0 0 0 0 0 0 0 0 127 0"/><feOffset dy="21.124"/><feGaussianBlur stdDeviation="36.967"/><feComposite in2="hardAlpha" k2="-1" k3="1" operator="arithmetic"/><feColorMatrix type="matrix" values="0 0 0 0 1 0 0 0 0 1 0 0 0 0 1 0 0 0 1 0"/><feBlend in2="shape" mode="overlay" result="effect1_innerShadow_38_902"/></filter><linearGradient id="paint0_linear_38_902" x1="223.598" x2="223.598" y1="0" y2="300" gradientUnits="userSpaceOnUse"><stop stop-color="#FFD358"/><stop offset="1" stop-color="#FA6C21"/></linearGradient><linearGradient id="paint1_linear_38_902" x1="-9.5" x2="420.5" y1="235" y2="261" gradientUnits="userSpaceOnUse"><stop stop-color="#F2F2F2"/><stop offset="1" stop-color="#CFCFCF"/></linearGradient><linearGradient id="paint2_linear_38_902" x1="-12.5" x2="417.5" y1="291.709" y2="317.709" gradientUnits="userSpaceOnUse"><stop stop-color="#F2F2F2"/><stop offset="1" stop-color="#CFCFCF"/></linearGradient><linearGradient id="paint3_linear_38_902" x1="-12.5" x2="417.5" y1="345.709" y2="371.709" gradientUnits="userSpaceOnUse"><stop stop-color="#F2F2F2"/><stop offset="1" stop-color="#CFCFCF"/></linearGradient></defs></svg>