<svg xmlns="http://www.w3.org/2000/svg" width="420" height="467" fill="none" viewBox="0 0 420 467"><g style="mix-blend-mode:color-burn" filter="url(#filter0_f_27_149)" opacity=".5"><path fill="url(#paint0_radial_27_149)" fill-opacity=".3" fill-rule="evenodd" d="M206.058 433.523C201.632 442.384 192.661 448.446 182.315 448.446C167.58 448.446 155.636 436.151 155.636 420.986C155.636 418.811 155.871 416.613 156.32 414.38C154.173 419.658 152.968 424.696 152.968 429.612C152.968 444.778 164.912 457.072 179.647 457.072C193.092 457.072 204.214 446.836 206.058 433.523Z" clip-rule="evenodd"/></g><path fill="url(#paint1_radial_27_149)" d="M206.06 429.476C206.06 444.642 194.115 456.936 179.38 456.936C164.645 456.936 152.701 444.642 152.701 429.476C152.701 414.31 164.173 397.99 179.38 377C192.186 397.415 206.06 414.31 206.06 429.476Z" opacity=".5"/><g style="mix-blend-mode:screen" opacity=".3"><ellipse cx="186.183" cy="406.904" fill="url(#paint2_radial_27_149)" rx="27.346" ry="28.754"/></g><g style="mix-blend-mode:screen" opacity=".3"><ellipse cx="170.709" cy="438.246" fill="url(#paint3_radial_27_149)" rx="27.346" ry="28.754"/></g><g style="mix-blend-mode:color-burn" filter="url(#filter1_f_27_149)" opacity=".5"><path fill="url(#paint4_radial_27_149)" fill-opacity=".3" fill-rule="evenodd" d="M252.467 362.193C248.516 369.592 240.506 374.654 231.268 374.654C218.112 374.654 207.447 364.388 207.447 351.726C207.447 349.91 207.658 348.075 208.058 346.211C206.141 350.618 205.065 354.824 205.065 358.928C205.065 371.591 215.73 381.856 228.886 381.856C240.89 381.856 250.821 373.309 252.467 362.193Z" clip-rule="evenodd"/></g><path fill="url(#paint5_radial_27_149)" d="M252.469 358.815C252.469 371.478 241.804 381.743 228.648 381.743C215.492 381.743 204.827 371.478 204.827 358.815C204.827 346.152 215.07 332.526 228.648 315C240.082 332.046 252.469 346.152 252.469 358.815Z" opacity=".5"/><g style="mix-blend-mode:screen" opacity=".3"><ellipse cx="234.722" cy="339.969" fill="url(#paint6_radial_27_149)" rx="24.416" ry="24.008"/></g><g style="mix-blend-mode:screen" opacity=".3"><ellipse cx="220.906" cy="366.138" fill="url(#paint7_radial_27_149)" rx="24.416" ry="24.008"/></g><g style="mix-blend-mode:color-burn" filter="url(#filter2_f_27_149)" opacity=".5"><path fill="url(#paint8_radial_27_149)" fill-opacity=".3" fill-rule="evenodd" d="M306.297 433.522C301.871 442.384 292.9 448.446 282.553 448.446C267.819 448.446 255.874 436.151 255.874 420.985C255.874 418.811 256.11 416.613 256.559 414.38C254.411 419.658 253.206 424.696 253.206 429.612C253.206 444.777 265.151 457.072 279.886 457.072C293.33 457.072 304.452 446.836 306.297 433.522Z" clip-rule="evenodd"/></g><path fill="url(#paint9_radial_27_149)" d="M306.298 429.476C306.298 444.642 294.353 456.936 279.619 456.936C264.884 456.936 252.939 444.642 252.939 429.476C252.939 414.31 264.411 397.99 279.619 377C292.425 397.415 306.298 414.31 306.298 429.476Z" opacity=".5"/><g style="mix-blend-mode:screen" opacity=".3"><ellipse cx="286.422" cy="406.904" fill="url(#paint10_radial_27_149)" rx="27.346" ry="28.754"/></g><g style="mix-blend-mode:screen" opacity=".3"><ellipse cx="270.948" cy="438.246" fill="url(#paint11_radial_27_149)" rx="27.346" ry="28.754"/></g><g style="mix-blend-mode:color-burn" filter="url(#filter3_f_27_149)" opacity=".5"><path fill="url(#paint12_radial_27_149)" fill-opacity=".3" fill-rule="evenodd" d="M154.233 361.804C150.282 369.203 142.272 374.265 133.034 374.265C119.878 374.265 109.213 363.999 109.213 351.337C109.213 349.521 109.424 347.686 109.824 345.822C107.907 350.229 106.831 354.435 106.831 358.539C106.831 371.202 117.496 381.467 130.652 381.467C142.656 381.467 152.587 372.92 154.233 361.804Z" clip-rule="evenodd"/></g><path fill="url(#paint13_radial_27_149)" d="M154.235 358.426C154.235 371.089 143.57 381.354 130.414 381.354C117.258 381.354 106.593 371.089 106.593 358.426C106.593 345.763 116.836 332.137 130.414 314.611C141.848 331.657 154.235 345.763 154.235 358.426Z" opacity=".5"/><g style="mix-blend-mode:screen" opacity=".3"><ellipse cx="136.488" cy="339.579" fill="url(#paint14_radial_27_149)" rx="24.416" ry="24.008"/></g><g style="mix-blend-mode:screen" opacity=".3"><ellipse cx="122.672" cy="365.748" fill="url(#paint15_radial_27_149)" rx="24.416" ry="24.008"/></g><g style="mix-blend-mode:color-burn" filter="url(#filter4_f_27_149)" opacity=".5"><path fill="url(#paint16_radial_27_149)" fill-opacity=".3" fill-rule="evenodd" d="M349.699 362.194C345.747 369.592 337.737 374.654 328.499 374.654C315.343 374.654 304.678 364.389 304.678 351.726C304.678 349.91 304.889 348.075 305.29 346.211C303.373 350.618 302.296 354.824 302.296 358.928C302.296 371.591 312.961 381.856 326.117 381.856C338.122 381.856 348.052 373.31 349.699 362.194Z" clip-rule="evenodd"/></g><path fill="url(#paint17_radial_27_149)" d="M349.7 358.815C349.7 371.478 339.035 381.743 325.879 381.743C312.723 381.743 302.058 371.478 302.058 358.815C302.058 346.152 312.301 332.526 325.879 315C337.313 332.046 349.7 346.152 349.7 358.815Z" opacity=".5"/><g style="mix-blend-mode:screen" opacity=".3"><ellipse cx="331.953" cy="339.969" fill="url(#paint18_radial_27_149)" rx="24.416" ry="24.008"/></g><g style="mix-blend-mode:screen" opacity=".3"><ellipse cx="318.137" cy="366.138" fill="url(#paint19_radial_27_149)" rx="24.416" ry="24.008"/></g><g filter="url(#filter5_i_27_149)"><ellipse cx="313.291" cy="87.67" fill="url(#paint20_linear_27_149)" rx="87.709" ry="87.67"/></g><mask id="path-22-inside-1_27_149" fill="#fff"><path fill-rule="evenodd" d="M319.761 305L150.358 305C67.3176 305 0 237.843 0 155C0 72.1573 67.3176 5 150.358 5C217.131 5 273.738 48.4226 293.354 108.507C301.767 106.22 310.621 105 319.761 105C375.122 105 420 149.771 420 205C420 260.228 375.122 305 319.761 305Z" clip-rule="evenodd"/></mask><g filter="url(#filter6_i_27_149)"><path fill="url(#paint21_linear_27_149)" fill-rule="evenodd" d="M319.761 305L150.358 305C67.3176 305 0 237.843 0 155C0 72.1573 67.3176 5 150.358 5C217.131 5 273.738 48.4226 293.354 108.507C301.767 106.22 310.621 105 319.761 105C375.122 105 420 149.771 420 205C420 260.228 375.122 305 319.761 305Z" clip-rule="evenodd"/></g><path fill="#000" fill-opacity=".05" d="M150.358 305V304V305ZM319.761 305V306V305ZM293.354 108.507L292.403 108.817L292.698 109.721L293.616 109.472L293.354 108.507ZM150.358 306L319.761 306V304L150.358 304V306ZM-1 155C-1 238.397 66.7675 306 150.358 306V304C67.8676 304 1 237.288 1 155H-1ZM150.358 4C66.7675 4 -1 71.6027 -1 155H1C1 72.7118 67.8676 6 150.358 6V4ZM294.304 108.196C274.558 47.7118 217.575 4 150.358 4V6C216.687 6 272.918 49.1334 292.403 108.817L294.304 108.196ZM293.616 109.472C301.945 107.208 310.711 106 319.761 106V104C310.532 104 301.59 105.232 293.091 107.542L293.616 109.472ZM319.761 106C374.572 106 419 150.326 419 205H421C421 149.217 375.672 104 319.761 104V106ZM419 205C419 259.674 374.572 304 319.761 304V306C375.672 306 421 260.783 421 205H419Z" mask="url(#path-22-inside-1_27_149)"/><defs><filter id="filter0_f_27_149" width="69.091" height="58.692" x="144.968" y="406.38" color-interpolation-filters="sRGB" filterUnits="userSpaceOnUse"><feFlood flood-opacity="0" result="BackgroundImageFix"/><feBlend in="SourceGraphic" in2="BackgroundImageFix" mode="normal" result="shape"/><feGaussianBlur result="effect1_foregroundBlur_27_149" stdDeviation="4"/></filter><filter id="filter1_f_27_149" width="63.402" height="51.645" x="197.065" y="338.211" color-interpolation-filters="sRGB" filterUnits="userSpaceOnUse"><feFlood flood-opacity="0" result="BackgroundImageFix"/><feBlend in="SourceGraphic" in2="BackgroundImageFix" mode="normal" result="shape"/><feGaussianBlur result="effect1_foregroundBlur_27_149" stdDeviation="4"/></filter><filter id="filter2_f_27_149" width="69.091" height="58.692" x="245.206" y="406.38" color-interpolation-filters="sRGB" filterUnits="userSpaceOnUse"><feFlood flood-opacity="0" result="BackgroundImageFix"/><feBlend in="SourceGraphic" in2="BackgroundImageFix" mode="normal" result="shape"/><feGaussianBlur result="effect1_foregroundBlur_27_149" stdDeviation="4"/></filter><filter id="filter3_f_27_149" width="63.402" height="51.645" x="98.831" y="337.822" color-interpolation-filters="sRGB" filterUnits="userSpaceOnUse"><feFlood flood-opacity="0" result="BackgroundImageFix"/><feBlend in="SourceGraphic" in2="BackgroundImageFix" mode="normal" result="shape"/><feGaussianBlur result="effect1_foregroundBlur_27_149" stdDeviation="4"/></filter><filter id="filter4_f_27_149" width="63.402" height="51.645" x="294.296" y="338.211" color-interpolation-filters="sRGB" filterUnits="userSpaceOnUse"><feFlood flood-opacity="0" result="BackgroundImageFix"/><feBlend in="SourceGraphic" in2="BackgroundImageFix" mode="normal" result="shape"/><feGaussianBlur result="effect1_foregroundBlur_27_149" stdDeviation="4"/></filter><filter id="filter5_i_27_149" width="175.418" height="195.34" x="225.582" y="0" color-interpolation-filters="sRGB" filterUnits="userSpaceOnUse"><feFlood flood-opacity="0" result="BackgroundImageFix"/><feBlend in="SourceGraphic" in2="BackgroundImageFix" mode="normal" result="shape"/><feColorMatrix in="SourceAlpha" result="hardAlpha" type="matrix" values="0 0 0 0 0 0 0 0 0 0 0 0 0 0 0 0 0 0 127 0"/><feOffset dy="20"/><feGaussianBlur stdDeviation="35"/><feComposite in2="hardAlpha" k2="-1" k3="1" operator="arithmetic"/><feColorMatrix type="matrix" values="0 0 0 0 1 0 0 0 0 1 0 0 0 0 1 0 0 0 1 0"/><feBlend in2="shape" mode="overlay" result="effect1_innerShadow_27_149"/></filter><filter id="filter6_i_27_149" width="420" height="348.647" x="0" y="5" color-interpolation-filters="sRGB" filterUnits="userSpaceOnUse"><feFlood flood-opacity="0" result="BackgroundImageFix"/><feBlend in="SourceGraphic" in2="BackgroundImageFix" mode="normal" result="shape"/><feColorMatrix in="SourceAlpha" result="hardAlpha" type="matrix" values="0 0 0 0 0 0 0 0 0 0 0 0 0 0 0 0 0 0 127 0"/><feOffset dy="48.647"/><feGaussianBlur stdDeviation="30"/><feComposite in2="hardAlpha" k2="-1" k3="1" operator="arithmetic"/><feColorMatrix type="matrix" values="0 0 0 0 1 0 0 0 0 1 0 0 0 0 1 0 0 0 1 0"/><feBlend in2="shape" mode="normal" result="effect1_innerShadow_27_149"/></filter><radialGradient id="paint0_radial_27_149" cx="0" cy="0" r="1" gradientTransform="translate(179.647 431.481) rotate(-39.7879) scale(45.8304 33.5111)" gradientUnits="userSpaceOnUse"><stop stop-color="#3CC7F5"/><stop offset="0" stop-color="#3CC7F5"/><stop offset="1" stop-color="#004DFF"/></radialGradient><radialGradient id="paint1_radial_27_149" cx="0" cy="0" r="1" gradientTransform="translate(179.38 431.345) rotate(-39.7879) scale(45.8304 33.5111)" gradientUnits="userSpaceOnUse"><stop stop-color="#3CC7F5"/><stop offset="0" stop-color="#3CC7F5"/><stop offset="1" stop-color="#004DFF"/></radialGradient><radialGradient id="paint2_radial_27_149" cx="0" cy="0" r="1" gradientTransform="translate(186.183 406.904) rotate(57.9574) scale(39.6886 11.251)" gradientUnits="userSpaceOnUse"><stop stop-color="#fff"/><stop offset=".555" stop-color="#BDDBF1" stop-opacity=".25"/><stop offset="1" stop-color="#5686F5" stop-opacity="0"/></radialGradient><radialGradient id="paint3_radial_27_149" cx="0" cy="0" r="1" gradientTransform="translate(169.242 438.246) rotate(51.8214) scale(21.5814 10.3351)" gradientUnits="userSpaceOnUse"><stop stop-color="#fff"/><stop offset=".674" stop-color="#BDDBF1" stop-opacity=".25"/><stop offset="1" stop-color="#5686F5" stop-opacity="0"/></radialGradient><radialGradient id="paint4_radial_27_149" cx="0" cy="0" r="1" gradientTransform="translate(228.886 360.489) rotate(-37.9113) scale(39.8545 28.7281)" gradientUnits="userSpaceOnUse"><stop stop-color="#3CC7F5"/><stop offset="0" stop-color="#3CC7F5"/><stop offset="1" stop-color="#004DFF"/></radialGradient><radialGradient id="paint5_radial_27_149" cx="0" cy="0" r="1" gradientTransform="translate(228.648 360.376) rotate(-37.9116) scale(39.8546 28.7283)" gradientUnits="userSpaceOnUse"><stop stop-color="#3CC7F5"/><stop offset="0" stop-color="#3CC7F5"/><stop offset="1" stop-color="#004DFF"/></radialGradient><radialGradient id="paint6_radial_27_149" cx="0" cy="0" r="1" gradientTransform="translate(234.722 339.969) rotate(56.2052) scale(33.8008 9.8486)" gradientUnits="userSpaceOnUse"><stop stop-color="#fff"/><stop offset=".555" stop-color="#BDDBF1" stop-opacity=".25"/><stop offset="1" stop-color="#5686F5" stop-opacity="0"/></radialGradient><radialGradient id="paint7_radial_27_149" cx="0" cy="0" r="1" gradientTransform="translate(219.596 366.138) rotate(49.9413) scale(18.5069 8.98477)" gradientUnits="userSpaceOnUse"><stop stop-color="#fff"/><stop offset=".674" stop-color="#BDDBF1" stop-opacity=".25"/><stop offset="1" stop-color="#5686F5" stop-opacity="0"/></radialGradient><radialGradient id="paint8_radial_27_149" cx="0" cy="0" r="1" gradientTransform="translate(279.886 431.481) rotate(-39.7879) scale(45.8304 33.5111)" gradientUnits="userSpaceOnUse"><stop stop-color="#3CC7F5"/><stop offset="0" stop-color="#3CC7F5"/><stop offset="1" stop-color="#004DFF"/></radialGradient><radialGradient id="paint9_radial_27_149" cx="0" cy="0" r="1" gradientTransform="translate(279.619 431.345) rotate(-39.7879) scale(45.8304 33.5111)" gradientUnits="userSpaceOnUse"><stop stop-color="#3CC7F5"/><stop offset="0" stop-color="#3CC7F5"/><stop offset="1" stop-color="#004DFF"/></radialGradient><radialGradient id="paint10_radial_27_149" cx="0" cy="0" r="1" gradientTransform="translate(286.422 406.904) rotate(57.9574) scale(39.6886 11.251)" gradientUnits="userSpaceOnUse"><stop stop-color="#fff"/><stop offset=".555" stop-color="#BDDBF1" stop-opacity=".25"/><stop offset="1" stop-color="#5686F5" stop-opacity="0"/></radialGradient><radialGradient id="paint11_radial_27_149" cx="0" cy="0" r="1" gradientTransform="translate(269.48 438.246) rotate(51.8214) scale(21.5814 10.3351)" gradientUnits="userSpaceOnUse"><stop stop-color="#fff"/><stop offset=".674" stop-color="#BDDBF1" stop-opacity=".25"/><stop offset="1" stop-color="#5686F5" stop-opacity="0"/></radialGradient><radialGradient id="paint12_radial_27_149" cx="0" cy="0" r="1" gradientTransform="translate(130.652 360.1) rotate(-37.9113) scale(39.8545 28.7281)" gradientUnits="userSpaceOnUse"><stop stop-color="#3CC7F5"/><stop offset="0" stop-color="#3CC7F5"/><stop offset="1" stop-color="#004DFF"/></radialGradient><radialGradient id="paint13_radial_27_149" cx="0" cy="0" r="1" gradientTransform="translate(130.414 359.986) rotate(-37.9116) scale(39.8546 28.7283)" gradientUnits="userSpaceOnUse"><stop stop-color="#3CC7F5"/><stop offset="0" stop-color="#3CC7F5"/><stop offset="1" stop-color="#004DFF"/></radialGradient><radialGradient id="paint14_radial_27_149" cx="0" cy="0" r="1" gradientTransform="translate(136.488 339.579) rotate(56.2052) scale(33.8008 9.8486)" gradientUnits="userSpaceOnUse"><stop stop-color="#fff"/><stop offset=".555" stop-color="#BDDBF1" stop-opacity=".25"/><stop offset="1" stop-color="#5686F5" stop-opacity="0"/></radialGradient><radialGradient id="paint15_radial_27_149" cx="0" cy="0" r="1" gradientTransform="translate(121.362 365.748) rotate(49.9413) scale(18.5069 8.98477)" gradientUnits="userSpaceOnUse"><stop stop-color="#fff"/><stop offset=".674" stop-color="#BDDBF1" stop-opacity=".25"/><stop offset="1" stop-color="#5686F5" stop-opacity="0"/></radialGradient><radialGradient id="paint16_radial_27_149" cx="0" cy="0" r="1" gradientTransform="translate(326.117 360.489) rotate(-37.9116) scale(39.8546 28.7283)" gradientUnits="userSpaceOnUse"><stop stop-color="#3CC7F5"/><stop offset="0" stop-color="#3CC7F5"/><stop offset="1" stop-color="#004DFF"/></radialGradient><radialGradient id="paint17_radial_27_149" cx="0" cy="0" r="1" gradientTransform="translate(325.879 360.376) rotate(-37.9116) scale(39.8546 28.7283)" gradientUnits="userSpaceOnUse"><stop stop-color="#3CC7F5"/><stop offset="0" stop-color="#3CC7F5"/><stop offset="1" stop-color="#004DFF"/></radialGradient><radialGradient id="paint18_radial_27_149" cx="0" cy="0" r="1" gradientTransform="translate(331.953 339.969) rotate(56.2052) scale(33.8008 9.8486)" gradientUnits="userSpaceOnUse"><stop stop-color="#fff"/><stop offset=".555" stop-color="#BDDBF1" stop-opacity=".25"/><stop offset="1" stop-color="#5686F5" stop-opacity="0"/></radialGradient><radialGradient id="paint19_radial_27_149" cx="0" cy="0" r="1" gradientTransform="translate(316.827 366.138) rotate(49.9413) scale(18.5069 8.98477)" gradientUnits="userSpaceOnUse"><stop stop-color="#fff"/><stop offset=".674" stop-color="#BDDBF1" stop-opacity=".25"/><stop offset="1" stop-color="#5686F5" stop-opacity="0"/></radialGradient><linearGradient id="paint20_linear_27_149" x1="313.291" x2="313.291" y1="0" y2="175.34" gradientUnits="userSpaceOnUse"><stop stop-color="#FFD358"/><stop offset="1" stop-color="#FA6C21"/></linearGradient><linearGradient id="paint21_linear_27_149" x1="29.423" x2="419.459" y1="5" y2="305.861" gradientUnits="userSpaceOnUse"><stop stop-color="#fff"/><stop offset="1" stop-color="#C1C1C1"/></linearGradient></defs></svg>