<svg xmlns="http://www.w3.org/2000/svg" width="437" height="476" fill="none" viewBox="0 0 437 476"><ellipse cx="250.481" cy="460.732" fill="#CBAA8A" rx="2.32" ry="3.368"/><ellipse cx="293.848" cy="382.507" fill="#CBAA8A" rx="3.926" ry="5.699"/><ellipse cx="183.423" cy="394.982" fill="#CBAA8A" rx="4.061" ry="5.894"/><ellipse cx="376.298" cy="304.076" fill="#CBAA8A" rx="6.068" ry="8.808"/><ellipse fill="url(#paint0_linear_36_862)" fill-opacity=".34" opacity=".75" rx="73.095" ry="23.588" transform="matrix(0.919203 -0.393783 0.220624 0.975359 274.867 337.341)"/><path fill="url(#paint1_linear_36_862)" fill-opacity=".18" fill-rule="evenodd" d="M280.704 392.052C297.852 382.243 309.135 369.298 307.149 360.523C304.762 349.966 284.078 349.439 260.952 359.346C237.826 369.254 221.014 385.843 223.402 396.4C224.824 402.686 232.733 405.416 243.781 404.504C243.948 412.656 247.222 423.574 252.249 436.191C265.68 461.09 303.162 478.651 309.211 475.264C311.17 474.168 308.807 472.572 304.645 469.76C295.955 463.889 279.418 452.716 278.001 429.723C277.313 418.566 278.69 409.349 279.732 402.383C280.381 398.038 280.9 394.569 280.704 392.052Z" clip-rule="evenodd" opacity=".75"/><ellipse fill="url(#paint2_linear_36_862)" fill-opacity=".7" opacity=".75" rx="86.008" ry="30.746" transform="matrix(0.919203 -0.393783 0.220624 0.975359 284.39 295.269)"/><g filter="url(#filter0_d_36_862)"><ellipse fill="url(#paint3_linear_36_862)" fill-opacity=".9" rx="129.012" ry="36.115" shape-rendering="crispEdges" transform="matrix(0.919203 -0.393783 0.220624 0.975359 244.218 256.04)"/></g><g filter="url(#filter1_f_36_862)"><path fill="url(#paint4_linear_36_862)" fill-opacity=".9" fill-rule="evenodd" d="M259.123 258.867C338.403 224.465 397.481 173.921 391.078 145.973C390.202 142.153 388.149 138.952 385.053 136.362C398.491 137.451 407 141.735 408.743 149.441C414.076 173.017 354.056 219.694 274.685 253.696C256.768 261.372 239.397 267.745 223.177 272.742C234.791 268.827 246.839 264.197 259.123 258.867Z" clip-rule="evenodd"/></g><g filter="url(#filter2_f_36_862)"><path fill="url(#paint5_linear_36_862)" fill-opacity=".9" fill-rule="evenodd" d="M266.295 261.908C149.768 307.277 49.8571 314.207 42.0898 277.099C40.5731 269.852 42.6806 261.456 47.9199 252.286C34.5596 267.767 28.1562 281.606 30.5831 292.335C38.6238 327.882 140.552 315.826 258.246 265.406C260.944 264.25 263.627 263.084 266.295 261.908Z" clip-rule="evenodd"/></g><g filter="url(#filter3_d_36_862)"><ellipse fill="url(#paint6_linear_36_862)" fill-opacity=".9" rx="163.154" ry="46.44" shape-rendering="crispEdges" transform="matrix(0.919203 -0.393783 0.220624 0.975359 218.625 204.498)"/></g><g filter="url(#filter4_f_36_862)"><path fill="url(#paint7_linear_36_862)" fill-rule="evenodd" d="M346.514 120.113C395.457 85.8772 423.932 54.5988 419.56 35.2685C411.294 -1.27222 288.78 18.7197 145.917 79.9217C117.127 92.2553 89.7075 105.321 64.343 118.623C80.0294 111.092 96.2794 103.707 112.97 96.5568C262.081 32.6783 389.929 11.7071 398.527 49.7163C402.297 66.386 382.505 91.6317 346.514 120.113Z" clip-rule="evenodd"/></g><g filter="url(#filter5_d_36_862)"><ellipse fill="url(#paint8_linear_36_862)" rx="192.66" ry="46.44" transform="matrix(0.919203 -0.393783 0.220624 0.975359 187.34 147.986)"/></g><defs><filter id="filter0_d_36_862" width="241.65" height="127.581" x="123.393" y="194.215" color-interpolation-filters="sRGB" filterUnits="userSpaceOnUse"><feFlood flood-opacity="0" result="BackgroundImageFix"/><feColorMatrix in="SourceAlpha" result="hardAlpha" type="matrix" values="0 0 0 0 0 0 0 0 0 0 0 0 0 0 0 0 0 0 127 0"/><feOffset dy="1.965"/><feGaussianBlur stdDeviation=".982"/><feComposite in2="hardAlpha" operator="out"/><feColorMatrix type="matrix" values="0 0 0 0 0 0 0 0 0 0 0 0 0 0 0 0 0 0 0.25 0"/><feBlend in2="BackgroundImageFix" mode="normal" result="effect1_dropShadow_36_862"/><feBlend in="SourceGraphic" in2="effect1_dropShadow_36_862" mode="normal" result="shape"/></filter><filter id="filter1_f_36_862" width="206.379" height="156.864" x="212.935" y="126.12" color-interpolation-filters="sRGB" filterUnits="userSpaceOnUse"><feFlood flood-opacity="0" result="BackgroundImageFix"/><feBlend in="SourceGraphic" in2="BackgroundImageFix" mode="normal" result="shape"/><feGaussianBlur result="effect1_foregroundBlur_36_862" stdDeviation="5.121"/></filter><filter id="filter2_f_36_862" width="264.392" height="88.642" x="15.99" y="238.198" color-interpolation-filters="sRGB" filterUnits="userSpaceOnUse"><feFlood flood-opacity="0" result="BackgroundImageFix"/><feBlend in="SourceGraphic" in2="BackgroundImageFix" mode="normal" result="shape"/><feGaussianBlur result="effect1_foregroundBlur_36_862" stdDeviation="7.044"/></filter><filter id="filter3_d_36_862" width="304.583" height="161.161" x="66.333" y="125.882" color-interpolation-filters="sRGB" filterUnits="userSpaceOnUse"><feFlood flood-opacity="0" result="BackgroundImageFix"/><feColorMatrix in="SourceAlpha" result="hardAlpha" type="matrix" values="0 0 0 0 0 0 0 0 0 0 0 0 0 0 0 0 0 0 127 0"/><feOffset dy="1.965"/><feGaussianBlur stdDeviation=".982"/><feComposite in2="hardAlpha" operator="out"/><feColorMatrix type="matrix" values="0 0 0 0 0 0 0 0 0 0 0 0 0 0 0 0 0 0 0.25 0"/><feBlend in2="BackgroundImageFix" mode="normal" result="effect1_dropShadow_36_862"/><feBlend in="SourceGraphic" in2="effect1_dropShadow_36_862" mode="normal" result="shape"/></filter><filter id="filter4_f_36_862" width="389.059" height="136.515" x="47.642" y=".299" color-interpolation-filters="sRGB" filterUnits="userSpaceOnUse"><feFlood flood-opacity="0" result="BackgroundImageFix"/><feBlend in="SourceGraphic" in2="BackgroundImageFix" mode="normal" result="shape"/><feGaussianBlur result="effect1_foregroundBlur_36_862" stdDeviation="8.35"/></filter><filter id="filter5_d_36_862" width="358.72" height="180.676" x="7.98" y="59.613" color-interpolation-filters="sRGB" filterUnits="userSpaceOnUse"><feFlood flood-opacity="0" result="BackgroundImageFix"/><feColorMatrix in="SourceAlpha" result="hardAlpha" type="matrix" values="0 0 0 0 0 0 0 0 0 0 0 0 0 0 0 0 0 0 127 0"/><feOffset dy="1.965"/><feGaussianBlur stdDeviation=".982"/><feComposite in2="hardAlpha" operator="out"/><feColorMatrix type="matrix" values="0 0 0 0 0 0 0 0 0 0 0 0 0 0 0 0 0 0 0.25 0"/><feBlend in2="BackgroundImageFix" mode="normal" result="effect1_dropShadow_36_862"/><feBlend in="SourceGraphic" in2="effect1_dropShadow_36_862" mode="normal" result="shape"/></filter><linearGradient id="paint0_linear_36_862" x1="1.968" x2="145.365" y1="23.344" y2="22.579" gradientUnits="userSpaceOnUse"><stop stop-color="#F3D9C4"/><stop offset="1" stop-color="#CFAD90"/></linearGradient><linearGradient id="paint1_linear_36_862" x1="243.721" x2="266.744" y1="430.534" y2="423.626" gradientUnits="userSpaceOnUse"><stop stop-color="#F3D9C4"/><stop offset="1" stop-color="#CFAD90"/></linearGradient><linearGradient id="paint2_linear_36_862" x1="2.316" x2="171.046" y1="30.428" y2="29.616" gradientUnits="userSpaceOnUse"><stop stop-color="#F3D9C4"/><stop offset="1" stop-color="#CFAD90"/></linearGradient><linearGradient id="paint3_linear_36_862" x1="3.474" x2="256.566" y1="35.742" y2="34.185" gradientUnits="userSpaceOnUse"><stop stop-color="#F3D9C4" stop-opacity=".75"/><stop offset="1" stop-color="#CFAD90"/></linearGradient><linearGradient id="paint4_linear_36_862" x1="125.087" x2="419.211" y1="270.475" y2="202.069" gradientUnits="userSpaceOnUse"><stop stop-color="#F3D9C4" stop-opacity=".75"/><stop offset="1" stop-color="#CFAD90"/></linearGradient><linearGradient id="paint5_linear_36_862" x1="36.17" x2="472.311" y1="289.211" y2="187.823" gradientUnits="userSpaceOnUse"><stop stop-color="#F3D9C4"/><stop offset="1" stop-color="#CFAD90"/></linearGradient><linearGradient id="paint6_linear_36_862" x1="4.393" x2="324.463" y1="45.96" y2="44.024" gradientUnits="userSpaceOnUse"><stop stop-color="#F3D9C4"/><stop offset="1" stop-color="#CFAD90"/></linearGradient><linearGradient id="paint7_linear_36_862" x1="19.661" x2="499.17" y1="95.59" y2="53.945" gradientUnits="userSpaceOnUse"><stop offset=".094" stop-color="#F9E7D9"/><stop offset="1" stop-color="#ECC7A8"/></linearGradient><linearGradient id="paint8_linear_36_862" x1="5.187" x2="383.138" y1="45.96" y2="43.26" gradientUnits="userSpaceOnUse"><stop stop-color="#F3D9C4"/><stop offset="1" stop-color="#CFAD90"/></linearGradient></defs></svg>